<svg width="30" height="30" viewBox="0 0 30 30" fill="none" xmlns="http://www.w3.org/2000/svg">
<g clip-path="url(#clip0_252_8)">
<path d="M10.7143 26.2286L1.07141 28.9286L3.77141 19.2858L21.4286 1.71434C21.6281 1.51024 21.8666 1.34807 22.1295 1.23736C22.3926 1.12664 22.6753 1.06961 22.9607 1.06961C23.2461 1.06961 23.5288 1.12664 23.7919 1.23736C24.0548 1.34807 24.2933 1.51024 24.4928 1.71434L28.2857 5.52863C28.4865 5.72783 28.6459 5.96485 28.7548 6.22596C28.8636 6.48708 28.9196 6.76718 28.9196 7.05006C28.9196 7.33293 28.8636 7.61303 28.7548 7.87416C28.6459 8.13528 28.4865 8.37228 28.2857 8.57148L10.7143 26.2286Z" stroke="white" stroke-width="3" stroke-linecap="round" stroke-linejoin="round"/>
</g>
<defs>
<clipPath id="clip0_252_8">
<rect width="30" height="30" fill="white"/>
</clipPath>
</defs>
</svg>
