<svg width="40" height="40" viewBox="0 0 40 40" fill="none" xmlns="http://www.w3.org/2000/svg">
<path d="M19.5714 22.4286C23.5163 22.4286 26.7143 19.2306 26.7143 15.2857C26.7143 11.3408 23.5163 8.14286 19.5714 8.14286C15.6266 8.14286 12.4286 11.3408 12.4286 15.2857C12.4286 19.2306 15.6266 22.4286 19.5714 22.4286Z" stroke="white" stroke-width="2" stroke-linecap="round" stroke-linejoin="round"/>
<path d="M7.37146 33.5714C8.64644 31.4786 10.4383 29.749 12.5749 28.5488C14.7115 27.3486 17.1209 26.7182 19.5715 26.7182C22.0221 26.7182 24.4314 27.3486 26.568 28.5488C28.7046 29.749 30.4965 31.4786 31.7715 33.5714" stroke="white" stroke-width="2" stroke-linecap="round" stroke-linejoin="round"/>
<path d="M19.5714 38.1429C29.8281 38.1429 38.1429 29.8281 38.1429 19.5714C38.1429 9.31471 29.8281 1 19.5714 1C9.31471 1 1 9.31471 1 19.5714C1 29.8281 9.31471 38.1429 19.5714 38.1429Z" stroke="white" stroke-width="2" stroke-linecap="round" stroke-linejoin="round"/>
</svg>
