<svg width="27" height="29" viewBox="0 0 27 29" fill="none" xmlns="http://www.w3.org/2000/svg">
<path d="M9.49558 4.25L10.417 1.87143C10.5724 1.46871 10.8458 1.12231 11.2014 0.877598C11.557 0.632887 11.9782 0.501275 12.4099 0.5H14.167C14.5987 0.501275 15.0199 0.632887 15.3755 0.877598C15.7311 1.12231 16.0045 1.46871 16.1599 1.87143L17.0813 4.25L20.2099 6.05L22.7384 5.66429C23.1595 5.60714 23.588 5.67645 23.9695 5.86341C24.3511 6.05037 24.6685 6.34654 24.8813 6.71429L25.7384 8.21429C25.9581 8.58789 26.0593 9.01931 26.0287 9.45162C25.9981 9.88392 25.8371 10.2968 25.567 10.6357L24.0027 12.6286V16.2286L25.6099 18.2214C25.88 18.5604 26.0409 18.9732 26.0715 19.4055C26.1021 19.8378 26.0009 20.2693 25.7813 20.6429L24.9242 22.1429C24.7113 22.5106 24.394 22.8068 24.0124 22.9937C23.6309 23.1807 23.2023 23.25 22.7813 23.1929L20.2527 22.8071L17.1242 24.6071L16.2027 26.9857C16.0473 27.3884 15.7739 27.7348 15.4183 27.9795C15.0627 28.2243 14.6415 28.3559 14.2099 28.3571H12.4099C11.9782 28.3559 11.557 28.2243 11.2014 27.9795C10.8458 27.7348 10.5724 27.3884 10.417 26.9857L9.49558 24.6071L6.36701 22.8071L3.83844 23.1929C3.4174 23.25 2.98888 23.1807 2.60733 22.9937C2.22578 22.8068 1.90842 22.5106 1.69558 22.1429L0.838437 20.6429C0.618798 20.2693 0.517603 19.8378 0.548208 19.4055C0.578814 18.9732 0.739781 18.5604 1.00987 18.2214L2.57415 16.2286V12.6286L0.967009 10.6357C0.696924 10.2968 0.535957 9.88392 0.505351 9.45162C0.474746 9.01931 0.57594 8.58789 0.79558 8.21429L1.65272 6.71429C1.86556 6.34654 2.18292 6.05037 2.56447 5.86341C2.94602 5.67645 3.37454 5.60714 3.79558 5.66429L6.32415 6.05L9.49558 4.25ZM9.00272 14.4286C9.00272 15.2762 9.25408 16.1048 9.725 16.8096C10.1959 17.5144 10.8653 18.0637 11.6484 18.3881C12.4315 18.7124 13.2932 18.7973 14.1245 18.6319C14.9559 18.4666 15.7195 18.0584 16.3189 17.459C16.9183 16.8597 17.3264 16.096 17.4918 15.2647C17.6572 14.4333 17.5723 13.5716 17.2479 12.7885C16.9235 12.0054 16.3742 11.3361 15.6695 10.8651C14.9647 10.3942 14.1361 10.1429 13.2884 10.1429C12.1518 10.1429 11.0617 10.5944 10.258 11.3981C9.45425 12.2018 9.00272 13.2919 9.00272 14.4286Z" fill="white" stroke="white" stroke-linecap="round" stroke-linejoin="round"/>
</svg>
