<svg width="35" height="35" viewBox="0 0 35 35" fill="none" xmlns="http://www.w3.org/2000/svg">
<path d="M17.1354 0C12.5919 0 8.23036 1.80645 5.02013 5.01882C1.80725 8.23116 0 12.5927 0 17.1354C0 21.6782 1.80725 26.0397 5.02013 29.252C8.23036 32.4644 12.5919 34.2708 17.1354 34.2708C21.679 34.2708 26.0405 32.4644 29.2507 29.252C32.4636 26.0397 34.2708 21.6782 34.2708 17.1354C34.2708 12.5927 32.4636 8.23116 29.2507 5.01882C26.0405 1.80645 21.679 0 17.1354 0Z" fill="url(#paint0_linear_95_33)"/>
<path d="M8.27902 16.6391C13.2751 14.4629 16.6058 13.0281 18.2711 12.3349C23.0316 10.3555 24.0195 10.0117 24.6647 10.0001C24.8067 9.99781 25.1226 10.0329 25.3288 10.1997C25.5001 10.3403 25.5483 10.5304 25.5724 10.6637C25.5938 10.797 25.6233 11.1009 25.5992 11.3381C25.3421 14.0477 24.2257 20.6229 23.6581 23.6577C23.4198 24.9418 22.9459 25.3724 22.488 25.4144C21.492 25.5059 20.737 24.7568 19.7731 24.1252C18.2658 23.1364 17.4144 22.5211 15.9498 21.5564C14.2577 20.4416 15.3554 19.8287 16.3193 18.8274C16.571 18.5653 20.9566 14.5773 21.0395 14.2155C21.0503 14.1703 21.061 14.0016 20.9592 13.9127C20.8602 13.8236 20.7129 13.8541 20.6058 13.8782C20.4532 13.9124 18.0462 15.505 13.3768 18.6555C12.6941 19.1251 12.0756 19.354 11.5187 19.342C10.9083 19.3288 9.73017 18.9961 8.85466 18.7117C7.7837 18.3628 6.92963 18.1784 7.00458 17.5859C7.04206 17.2774 7.46775 16.9617 8.27902 16.6391Z" fill="white"/>
<defs>
<linearGradient id="paint0_linear_95_33" x1="1713.54" y1="0" x2="1713.54" y2="3427.08" gradientUnits="userSpaceOnUse">
<stop stop-color="#2AABEE"/>
<stop offset="1" stop-color="#229ED9"/>
</linearGradient>
</defs>
</svg>
