<svg width="40" height="40" viewBox="0 0 40 40" fill="none" xmlns="http://www.w3.org/2000/svg">
<g clip-path="url(#clip0_95_17)">
<path d="M1.33615 19.8295C1.33516 23.1312 2.19789 26.355 3.83826 29.1965L1.1792 38.9053L11.1148 36.3001C13.852 37.792 16.9342 38.5795 20.0708 38.5803H20.0791C30.4081 38.5803 38.8162 30.1751 38.8206 19.8443C38.8226 14.8381 36.8748 10.1308 33.336 6.58929C29.7979 3.04796 25.0922 1.09666 20.0783 1.09448C9.74804 1.09448 1.34049 9.49909 1.33615 19.8295Z" fill="url(#paint0_linear_95_17)"/>
<path d="M0.666977 19.8238C0.665794 23.2443 1.55951 26.5835 3.25832 29.5266L0.503906 39.5834L10.7958 36.8849C13.6316 38.4311 16.8243 39.2462 20.0732 39.2474H20.0815C30.7811 39.2474 39.4913 30.54 39.4959 19.8394C39.4976 14.6533 37.4798 9.77687 33.8147 6.10837C30.149 2.44031 25.2749 0.418919 20.0815 0.416748C9.37992 0.416748 0.671319 9.12279 0.666977 19.8238ZM6.79592 29.0198L6.41171 28.4098C4.79621 25.8412 3.94356 22.873 3.94475 19.825C3.94831 10.9308 11.1868 3.69472 20.0876 3.69472C24.3979 3.6965 28.449 5.37675 31.4958 8.4255C34.5426 11.4745 36.2191 15.5275 36.2179 19.8382C36.2139 28.7326 28.9753 35.9696 20.0815 35.9696H20.0752C17.1793 35.968 14.3391 35.1904 11.8621 33.7208L11.2726 33.3712L5.16521 34.9725L6.79592 29.0198Z" fill="url(#paint1_linear_95_17)"/>
<path d="M15.2291 11.7106C14.8657 10.9028 14.4833 10.8866 14.1376 10.8724C13.8547 10.8603 13.5311 10.8611 13.208 10.8611C12.8844 10.8611 12.3588 10.9827 11.9145 11.468C11.4697 11.9534 10.2164 13.1269 10.2164 15.5135C10.2164 17.9003 11.9549 20.2066 12.1972 20.5306C12.4398 20.854 15.5531 25.9083 20.4837 27.8527C24.5816 29.4686 25.4155 29.1472 26.3048 29.0663C27.1942 28.9855 29.1749 27.8932 29.5791 26.7604C29.9834 25.6278 29.9834 24.6569 29.8622 24.4541C29.7409 24.252 29.4174 24.1306 28.9323 23.8881C28.4471 23.6455 26.0622 22.4718 25.6176 22.3099C25.1728 22.1483 24.8495 22.0675 24.5259 22.5531C24.2025 23.0382 23.2734 24.1306 22.9903 24.4541C22.7074 24.7783 22.4243 24.8188 21.9393 24.5761C21.454 24.3327 19.8916 23.821 18.0383 22.1686C16.5961 20.8828 15.6226 19.2949 15.3395 18.8093C15.0566 18.3242 15.3093 18.0614 15.5525 17.8196C15.7705 17.6023 16.0378 17.2532 16.2804 16.9701C16.5225 16.6868 16.6032 16.4846 16.7649 16.1611C16.9268 15.8373 16.8458 15.554 16.7246 15.3114C16.6032 15.0688 15.6605 12.6699 15.2291 11.7106Z" fill="white"/>
</g>
<defs>
<linearGradient id="paint0_linear_95_17" x1="1883.25" y1="3782.18" x2="1883.25" y2="1.09629" gradientUnits="userSpaceOnUse">
<stop stop-color="#1FAF38"/>
<stop offset="1" stop-color="#60D669"/>
</linearGradient>
<linearGradient id="paint1_linear_95_17" x1="1950.1" y1="3917.09" x2="1950.1" y2="0.411846" gradientUnits="userSpaceOnUse">
<stop stop-color="#F9F9F9"/>
<stop offset="1" stop-color="white"/>
</linearGradient>
<clipPath id="clip0_95_17">
<rect width="40" height="40" fill="white"/>
</clipPath>
</defs>
</svg>
